<mxfile host="app.diagrams.net" agent="Mozilla/5.0 (Macintosh; Intel Mac OS X 10_15_7) AppleWebKit/537.36 (KHTML, like Gecko) Chrome/131.0.0.0 Safari/537.36" version="26.0.1">
  <diagram id="C5RBs43oDa-KdzZeNtuy" name="Page-1">
    <mxGraphModel dx="1736" dy="553" grid="1" gridSize="10" guides="1" tooltips="1" connect="1" arrows="1" fold="1" page="1" pageScale="1" pageWidth="827" pageHeight="1169" math="0" shadow="0">
      <root>
        <mxCell id="WIyWlLk6GJQsqaUBKTNV-0" />
        <mxCell id="WIyWlLk6GJQsqaUBKTNV-1" parent="WIyWlLk6GJQsqaUBKTNV-0" />
        <mxCell id="j0SL_xLkmIAa-dE_FRkC-13" value="zoom meeting" style="rounded=0;whiteSpace=wrap;html=1;" vertex="1" parent="WIyWlLk6GJQsqaUBKTNV-1">
          <mxGeometry x="580" y="270" width="110" height="50" as="geometry" />
        </mxCell>
        <mxCell id="j0SL_xLkmIAa-dE_FRkC-14" value="&lt;u&gt;time&lt;/u&gt;" style="ellipse;whiteSpace=wrap;html=1;" vertex="1" parent="WIyWlLk6GJQsqaUBKTNV-1">
          <mxGeometry x="530" y="350" width="70" height="30" as="geometry" />
        </mxCell>
        <mxCell id="j0SL_xLkmIAa-dE_FRkC-15" value="" style="endArrow=none;html=1;rounded=0;exitX=0.5;exitY=0;exitDx=0;exitDy=0;entryX=0;entryY=1;entryDx=0;entryDy=0;" edge="1" parent="WIyWlLk6GJQsqaUBKTNV-1" source="j0SL_xLkmIAa-dE_FRkC-14" target="j0SL_xLkmIAa-dE_FRkC-13">
          <mxGeometry width="50" height="50" relative="1" as="geometry">
            <mxPoint x="450" y="320" as="sourcePoint" />
            <mxPoint x="500" y="270" as="targetPoint" />
          </mxGeometry>
        </mxCell>
        <mxCell id="j0SL_xLkmIAa-dE_FRkC-17" value="subject" style="ellipse;whiteSpace=wrap;html=1;" vertex="1" parent="WIyWlLk6GJQsqaUBKTNV-1">
          <mxGeometry x="620" y="350" width="60" height="30" as="geometry" />
        </mxCell>
        <mxCell id="j0SL_xLkmIAa-dE_FRkC-18" value="" style="endArrow=none;html=1;rounded=0;entryX=0.5;entryY=1;entryDx=0;entryDy=0;exitX=0.5;exitY=0;exitDx=0;exitDy=0;" edge="1" parent="WIyWlLk6GJQsqaUBKTNV-1" source="j0SL_xLkmIAa-dE_FRkC-17" target="j0SL_xLkmIAa-dE_FRkC-13">
          <mxGeometry width="50" height="50" relative="1" as="geometry">
            <mxPoint x="450" y="320" as="sourcePoint" />
            <mxPoint x="500" y="270" as="targetPoint" />
          </mxGeometry>
        </mxCell>
        <mxCell id="j0SL_xLkmIAa-dE_FRkC-19" value="participant" style="rhombus;whiteSpace=wrap;html=1;" vertex="1" parent="WIyWlLk6GJQsqaUBKTNV-1">
          <mxGeometry x="430" y="260" width="80" height="70" as="geometry" />
        </mxCell>
        <mxCell id="j0SL_xLkmIAa-dE_FRkC-22" value="" style="endArrow=none;html=1;rounded=0;exitX=1;exitY=0.5;exitDx=0;exitDy=0;entryX=0;entryY=0.5;entryDx=0;entryDy=0;strokeWidth=3;" edge="1" parent="WIyWlLk6GJQsqaUBKTNV-1" source="j0SL_xLkmIAa-dE_FRkC-19" target="j0SL_xLkmIAa-dE_FRkC-13">
          <mxGeometry width="50" height="50" relative="1" as="geometry">
            <mxPoint x="450" y="320" as="sourcePoint" />
            <mxPoint x="500" y="270" as="targetPoint" />
          </mxGeometry>
        </mxCell>
        <mxCell id="j0SL_xLkmIAa-dE_FRkC-24" value="" style="group" vertex="1" connectable="0" parent="WIyWlLk6GJQsqaUBKTNV-1">
          <mxGeometry x="90" y="185" width="280" height="220" as="geometry" />
        </mxCell>
        <mxCell id="j0SL_xLkmIAa-dE_FRkC-0" value="Contact" style="rounded=0;whiteSpace=wrap;html=1;" vertex="1" parent="j0SL_xLkmIAa-dE_FRkC-24">
          <mxGeometry x="110" y="85" width="100" height="50" as="geometry" />
        </mxCell>
        <mxCell id="j0SL_xLkmIAa-dE_FRkC-1" value="" style="endArrow=none;html=1;rounded=0;exitX=0;exitY=1;exitDx=0;exitDy=0;" edge="1" parent="j0SL_xLkmIAa-dE_FRkC-24" source="j0SL_xLkmIAa-dE_FRkC-0" target="j0SL_xLkmIAa-dE_FRkC-2">
          <mxGeometry width="50" height="50" relative="1" as="geometry">
            <mxPoint x="100" y="185" as="sourcePoint" />
            <mxPoint x="110" y="135" as="targetPoint" />
          </mxGeometry>
        </mxCell>
        <mxCell id="j0SL_xLkmIAa-dE_FRkC-2" value="&lt;u&gt;name&lt;/u&gt;" style="ellipse;whiteSpace=wrap;html=1;" vertex="1" parent="j0SL_xLkmIAa-dE_FRkC-24">
          <mxGeometry x="60" y="165" width="60" height="30" as="geometry" />
        </mxCell>
        <mxCell id="j0SL_xLkmIAa-dE_FRkC-3" value="" style="endArrow=none;html=1;rounded=0;entryX=1;entryY=1;entryDx=0;entryDy=0;exitX=0.5;exitY=0;exitDx=0;exitDy=0;" edge="1" parent="j0SL_xLkmIAa-dE_FRkC-24" source="j0SL_xLkmIAa-dE_FRkC-4" target="j0SL_xLkmIAa-dE_FRkC-0">
          <mxGeometry width="50" height="50" relative="1" as="geometry">
            <mxPoint x="140" y="165" as="sourcePoint" />
            <mxPoint x="190" y="115" as="targetPoint" />
          </mxGeometry>
        </mxCell>
        <mxCell id="j0SL_xLkmIAa-dE_FRkC-4" value="address" style="ellipse;whiteSpace=wrap;html=1;" vertex="1" parent="j0SL_xLkmIAa-dE_FRkC-24">
          <mxGeometry x="200" y="165" width="63" height="30" as="geometry" />
        </mxCell>
        <mxCell id="j0SL_xLkmIAa-dE_FRkC-5" value="phone number" style="ellipse;whiteSpace=wrap;html=1;" vertex="1" parent="j0SL_xLkmIAa-dE_FRkC-24">
          <mxGeometry x="130" y="165" width="60" height="30" as="geometry" />
        </mxCell>
        <mxCell id="j0SL_xLkmIAa-dE_FRkC-6" value="" style="endArrow=none;html=1;rounded=0;entryX=0.5;entryY=1;entryDx=0;entryDy=0;exitX=0.5;exitY=0;exitDx=0;exitDy=0;" edge="1" parent="j0SL_xLkmIAa-dE_FRkC-24" source="j0SL_xLkmIAa-dE_FRkC-5" target="j0SL_xLkmIAa-dE_FRkC-0">
          <mxGeometry width="50" height="50" relative="1" as="geometry">
            <mxPoint x="160" y="165" as="sourcePoint" />
            <mxPoint x="190" y="115" as="targetPoint" />
          </mxGeometry>
        </mxCell>
        <mxCell id="j0SL_xLkmIAa-dE_FRkC-7" value="shared contacts" style="rhombus;whiteSpace=wrap;html=1;" vertex="1" parent="j0SL_xLkmIAa-dE_FRkC-24">
          <mxGeometry x="20" y="5" width="70" height="70" as="geometry" />
        </mxCell>
        <mxCell id="j0SL_xLkmIAa-dE_FRkC-8" value="" style="endArrow=none;html=1;rounded=0;entryX=0.5;entryY=0;entryDx=0;entryDy=0;exitX=1;exitY=0.5;exitDx=0;exitDy=0;" edge="1" parent="j0SL_xLkmIAa-dE_FRkC-24" source="j0SL_xLkmIAa-dE_FRkC-7" target="j0SL_xLkmIAa-dE_FRkC-0">
          <mxGeometry width="50" height="50" relative="1" as="geometry">
            <mxPoint x="140" y="225" as="sourcePoint" />
            <mxPoint x="190" y="175" as="targetPoint" />
            <Array as="points">
              <mxPoint x="160" y="40" />
            </Array>
          </mxGeometry>
        </mxCell>
        <mxCell id="j0SL_xLkmIAa-dE_FRkC-11" value="is a contact of" style="edgeLabel;html=1;align=center;verticalAlign=middle;resizable=0;points=[];" vertex="1" connectable="0" parent="j0SL_xLkmIAa-dE_FRkC-8">
          <mxGeometry x="-0.3757" y="1" relative="1" as="geometry">
            <mxPoint y="-7" as="offset" />
          </mxGeometry>
        </mxCell>
        <mxCell id="j0SL_xLkmIAa-dE_FRkC-10" value="" style="endArrow=none;html=1;rounded=0;entryX=0.5;entryY=1;entryDx=0;entryDy=0;exitX=0;exitY=0.5;exitDx=0;exitDy=0;" edge="1" parent="j0SL_xLkmIAa-dE_FRkC-24" source="j0SL_xLkmIAa-dE_FRkC-0" target="j0SL_xLkmIAa-dE_FRkC-7">
          <mxGeometry width="50" height="50" relative="1" as="geometry">
            <mxPoint x="150" y="175" as="sourcePoint" />
            <mxPoint x="200" y="125" as="targetPoint" />
            <Array as="points">
              <mxPoint x="55" y="110" />
            </Array>
          </mxGeometry>
        </mxCell>
        <mxCell id="j0SL_xLkmIAa-dE_FRkC-12" value="has the contact" style="edgeLabel;html=1;align=center;verticalAlign=middle;resizable=0;points=[];" vertex="1" connectable="0" parent="j0SL_xLkmIAa-dE_FRkC-10">
          <mxGeometry x="0.1227" relative="1" as="geometry">
            <mxPoint x="10" y="7" as="offset" />
          </mxGeometry>
        </mxCell>
        <mxCell id="j0SL_xLkmIAa-dE_FRkC-23" value="" style="swimlane;startSize=0;" vertex="1" parent="j0SL_xLkmIAa-dE_FRkC-24">
          <mxGeometry width="280" height="220" as="geometry">
            <mxRectangle width="50" height="40" as="alternateBounds" />
          </mxGeometry>
        </mxCell>
        <mxCell id="j0SL_xLkmIAa-dE_FRkC-25" value="" style="endArrow=none;html=1;rounded=0;entryX=0;entryY=0.5;entryDx=0;entryDy=0;exitX=1;exitY=0.5;exitDx=0;exitDy=0;" edge="1" parent="WIyWlLk6GJQsqaUBKTNV-1" source="j0SL_xLkmIAa-dE_FRkC-23" target="j0SL_xLkmIAa-dE_FRkC-19">
          <mxGeometry width="50" height="50" relative="1" as="geometry">
            <mxPoint x="370" y="295" as="sourcePoint" />
            <mxPoint x="410" y="270" as="targetPoint" />
          </mxGeometry>
        </mxCell>
        <mxCell id="j0SL_xLkmIAa-dE_FRkC-45" value="late" style="rhombus;whiteSpace=wrap;html=1;strokeWidth=1;" vertex="1" parent="WIyWlLk6GJQsqaUBKTNV-1">
          <mxGeometry x="600" y="160" width="70" height="65" as="geometry" />
        </mxCell>
        <mxCell id="j0SL_xLkmIAa-dE_FRkC-46" value="" style="endArrow=none;html=1;rounded=0;entryX=0.5;entryY=1;entryDx=0;entryDy=0;exitX=0.5;exitY=0;exitDx=0;exitDy=0;" edge="1" parent="WIyWlLk6GJQsqaUBKTNV-1" source="j0SL_xLkmIAa-dE_FRkC-13" target="j0SL_xLkmIAa-dE_FRkC-45">
          <mxGeometry width="50" height="50" relative="1" as="geometry">
            <mxPoint x="430" y="280" as="sourcePoint" />
            <mxPoint x="480" y="230" as="targetPoint" />
          </mxGeometry>
        </mxCell>
        <mxCell id="j0SL_xLkmIAa-dE_FRkC-47" value="" style="endArrow=none;html=1;rounded=0;entryX=0.5;entryY=0;entryDx=0;entryDy=0;exitX=0.75;exitY=0;exitDx=0;exitDy=0;" edge="1" parent="WIyWlLk6GJQsqaUBKTNV-1" source="j0SL_xLkmIAa-dE_FRkC-0" target="j0SL_xLkmIAa-dE_FRkC-45">
          <mxGeometry width="50" height="50" relative="1" as="geometry">
            <mxPoint x="550" y="190" as="sourcePoint" />
            <mxPoint x="640" y="150" as="targetPoint" />
            <Array as="points">
              <mxPoint x="275" y="160" />
            </Array>
          </mxGeometry>
        </mxCell>
        <mxCell id="j0SL_xLkmIAa-dE_FRkC-49" value="the person who is late" style="edgeLabel;html=1;align=center;verticalAlign=middle;resizable=0;points=[];" vertex="1" connectable="0" parent="j0SL_xLkmIAa-dE_FRkC-47">
          <mxGeometry x="0.348" y="3" relative="1" as="geometry">
            <mxPoint y="-5" as="offset" />
          </mxGeometry>
        </mxCell>
        <mxCell id="j0SL_xLkmIAa-dE_FRkC-48" value="" style="endArrow=none;html=1;rounded=0;exitX=1;exitY=0.25;exitDx=0;exitDy=0;entryX=0;entryY=1;entryDx=0;entryDy=0;" edge="1" parent="WIyWlLk6GJQsqaUBKTNV-1" source="j0SL_xLkmIAa-dE_FRkC-0" target="j0SL_xLkmIAa-dE_FRkC-45">
          <mxGeometry width="50" height="50" relative="1" as="geometry">
            <mxPoint x="430" y="280" as="sourcePoint" />
            <mxPoint x="480" y="230" as="targetPoint" />
          </mxGeometry>
        </mxCell>
        <mxCell id="j0SL_xLkmIAa-dE_FRkC-50" value="the person who caused the delay" style="edgeLabel;html=1;align=center;verticalAlign=middle;resizable=0;points=[];rotation=347;" vertex="1" connectable="0" parent="j0SL_xLkmIAa-dE_FRkC-48">
          <mxGeometry x="0.1152" relative="1" as="geometry">
            <mxPoint x="-5" y="-7" as="offset" />
          </mxGeometry>
        </mxCell>
        <mxCell id="j0SL_xLkmIAa-dE_FRkC-51" value="" style="endArrow=none;html=1;rounded=0;exitX=1;exitY=0.5;exitDx=0;exitDy=0;" edge="1" parent="WIyWlLk6GJQsqaUBKTNV-1" source="j0SL_xLkmIAa-dE_FRkC-45" target="j0SL_xLkmIAa-dE_FRkC-52">
          <mxGeometry width="50" height="50" relative="1" as="geometry">
            <mxPoint x="710" y="185" as="sourcePoint" />
            <mxPoint x="740" y="193" as="targetPoint" />
          </mxGeometry>
        </mxCell>
        <mxCell id="j0SL_xLkmIAa-dE_FRkC-52" value="delay time" style="ellipse;whiteSpace=wrap;html=1;" vertex="1" parent="WIyWlLk6GJQsqaUBKTNV-1">
          <mxGeometry x="710" y="177" width="70" height="33" as="geometry" />
        </mxCell>
        <mxCell id="j0SL_xLkmIAa-dE_FRkC-53" value="folder" style="rounded=0;whiteSpace=wrap;html=1;" vertex="1" parent="WIyWlLk6GJQsqaUBKTNV-1">
          <mxGeometry x="-260" y="177" width="100" height="43" as="geometry" />
        </mxCell>
        <mxCell id="j0SL_xLkmIAa-dE_FRkC-54" value="&lt;u&gt;folder ID&lt;/u&gt;" style="ellipse;whiteSpace=wrap;html=1;" vertex="1" parent="WIyWlLk6GJQsqaUBKTNV-1">
          <mxGeometry x="-170" y="260" width="70" height="40" as="geometry" />
        </mxCell>
        <mxCell id="j0SL_xLkmIAa-dE_FRkC-55" value="" style="endArrow=none;html=1;rounded=0;entryX=1;entryY=1;entryDx=0;entryDy=0;exitX=0.5;exitY=0;exitDx=0;exitDy=0;" edge="1" parent="WIyWlLk6GJQsqaUBKTNV-1" source="j0SL_xLkmIAa-dE_FRkC-54" target="j0SL_xLkmIAa-dE_FRkC-53">
          <mxGeometry width="50" height="50" relative="1" as="geometry">
            <mxPoint x="-110" y="310" as="sourcePoint" />
            <mxPoint x="-60" y="260" as="targetPoint" />
          </mxGeometry>
        </mxCell>
        <mxCell id="j0SL_xLkmIAa-dE_FRkC-56" value="folder name" style="ellipse;whiteSpace=wrap;html=1;" vertex="1" parent="WIyWlLk6GJQsqaUBKTNV-1">
          <mxGeometry x="-250" y="260" width="70" height="40" as="geometry" />
        </mxCell>
        <mxCell id="j0SL_xLkmIAa-dE_FRkC-57" value="" style="endArrow=none;html=1;rounded=0;entryX=0.5;entryY=1;entryDx=0;entryDy=0;exitX=0.5;exitY=0;exitDx=0;exitDy=0;" edge="1" parent="WIyWlLk6GJQsqaUBKTNV-1" source="j0SL_xLkmIAa-dE_FRkC-56" target="j0SL_xLkmIAa-dE_FRkC-53">
          <mxGeometry width="50" height="50" relative="1" as="geometry">
            <mxPoint x="-110" y="310" as="sourcePoint" />
            <mxPoint x="-60" y="260" as="targetPoint" />
          </mxGeometry>
        </mxCell>
        <mxCell id="j0SL_xLkmIAa-dE_FRkC-58" value="creation date" style="ellipse;whiteSpace=wrap;html=1;" vertex="1" parent="WIyWlLk6GJQsqaUBKTNV-1">
          <mxGeometry x="-340" y="260" width="70" height="40" as="geometry" />
        </mxCell>
        <mxCell id="j0SL_xLkmIAa-dE_FRkC-59" value="" style="endArrow=none;html=1;rounded=0;entryX=0;entryY=1;entryDx=0;entryDy=0;exitX=0.5;exitY=0;exitDx=0;exitDy=0;" edge="1" parent="WIyWlLk6GJQsqaUBKTNV-1" source="j0SL_xLkmIAa-dE_FRkC-58" target="j0SL_xLkmIAa-dE_FRkC-53">
          <mxGeometry width="50" height="50" relative="1" as="geometry">
            <mxPoint x="-110" y="310" as="sourcePoint" />
            <mxPoint x="-60" y="260" as="targetPoint" />
          </mxGeometry>
        </mxCell>
        <mxCell id="j0SL_xLkmIAa-dE_FRkC-60" value="file" style="rounded=0;whiteSpace=wrap;html=1;strokeWidth=3;" vertex="1" parent="WIyWlLk6GJQsqaUBKTNV-1">
          <mxGeometry x="-610" y="300" width="100" height="50" as="geometry" />
        </mxCell>
        <mxCell id="j0SL_xLkmIAa-dE_FRkC-61" value="sub-folder" style="rhombus;whiteSpace=wrap;html=1;" vertex="1" parent="WIyWlLk6GJQsqaUBKTNV-1">
          <mxGeometry x="-130" y="114" width="70" height="63" as="geometry" />
        </mxCell>
        <mxCell id="j0SL_xLkmIAa-dE_FRkC-62" value="" style="endArrow=none;html=1;rounded=0;exitX=0.5;exitY=0;exitDx=0;exitDy=0;entryX=0;entryY=0.5;entryDx=0;entryDy=0;" edge="1" parent="WIyWlLk6GJQsqaUBKTNV-1" source="j0SL_xLkmIAa-dE_FRkC-53" target="j0SL_xLkmIAa-dE_FRkC-61">
          <mxGeometry width="50" height="50" relative="1" as="geometry">
            <mxPoint x="-220" y="185" as="sourcePoint" />
            <mxPoint x="-170" y="135" as="targetPoint" />
            <Array as="points">
              <mxPoint x="-210" y="146" />
            </Array>
          </mxGeometry>
        </mxCell>
        <mxCell id="j0SL_xLkmIAa-dE_FRkC-63" value="" style="endArrow=none;html=1;rounded=0;entryX=0.5;entryY=1;entryDx=0;entryDy=0;exitX=1;exitY=0.5;exitDx=0;exitDy=0;" edge="1" parent="WIyWlLk6GJQsqaUBKTNV-1" source="j0SL_xLkmIAa-dE_FRkC-53" target="j0SL_xLkmIAa-dE_FRkC-61">
          <mxGeometry width="50" height="50" relative="1" as="geometry">
            <mxPoint x="-150" y="270" as="sourcePoint" />
            <mxPoint x="-100" y="220" as="targetPoint" />
            <Array as="points">
              <mxPoint x="-95" y="199" />
            </Array>
          </mxGeometry>
        </mxCell>
        <mxCell id="j0SL_xLkmIAa-dE_FRkC-64" value="is parent of" style="edgeLabel;html=1;align=center;verticalAlign=middle;resizable=0;points=[];" vertex="1" connectable="0" parent="j0SL_xLkmIAa-dE_FRkC-63">
          <mxGeometry x="-0.0459" relative="1" as="geometry">
            <mxPoint x="-52" y="-63" as="offset" />
          </mxGeometry>
        </mxCell>
        <mxCell id="j0SL_xLkmIAa-dE_FRkC-65" value="is child of" style="edgeLabel;html=1;align=center;verticalAlign=middle;resizable=0;points=[];" vertex="1" connectable="0" parent="j0SL_xLkmIAa-dE_FRkC-63">
          <mxGeometry x="-0.0227" y="-1" relative="1" as="geometry">
            <mxPoint x="-3" y="-9" as="offset" />
          </mxGeometry>
        </mxCell>
        <mxCell id="j0SL_xLkmIAa-dE_FRkC-66" value="" style="swimlane;startSize=0;" vertex="1" parent="WIyWlLk6GJQsqaUBKTNV-1">
          <mxGeometry x="-350" y="100" width="300" height="220" as="geometry" />
        </mxCell>
        <mxCell id="j0SL_xLkmIAa-dE_FRkC-67" value="" style="ellipse;whiteSpace=wrap;html=1;" vertex="1" parent="WIyWlLk6GJQsqaUBKTNV-1">
          <mxGeometry x="-520" y="390" width="80" height="40" as="geometry" />
        </mxCell>
      </root>
    </mxGraphModel>
  </diagram>
</mxfile>
